<svg width="16" height="16" viewBox="0 0 16 16" fill="none" xmlns="http://www.w3.org/2000/svg">
<g clip-path="url(#clip0_2091_2507)">
<path d="M2.66634 6.66668C1.93301 6.66668 1.33301 6.06668 1.33301 5.33334V2.66668C1.33301 1.93334 1.93301 1.33334 2.66634 1.33334H5.33301C6.06634 1.33334 6.66634 1.93334 6.66634 2.66668M6.66634 10.6667C5.93301 10.6667 5.33301 10.0667 5.33301 9.33334V6.66668C5.33301 5.93334 5.93301 5.33334 6.66634 5.33334H9.33301C10.0663 5.33334 10.6663 5.93334 10.6663 6.66668M10.6663 9.33334H13.333C14.0694 9.33334 14.6663 9.9303 14.6663 10.6667V13.3333C14.6663 14.0697 14.0694 14.6667 13.333 14.6667H10.6663C9.92996 14.6667 9.33301 14.0697 9.33301 13.3333V10.6667C9.33301 9.9303 9.92996 9.33334 10.6663 9.33334Z" stroke="#475569" stroke-width="1.5" stroke-linecap="round" stroke-linejoin="round"/>
</g>
<defs>
<clipPath id="clip0_2091_2507">
<rect width="16" height="16" fill="white"/>
</clipPath>
</defs>
</svg>
