<svg width="15" height="15" viewBox="0 0 15 15" fill="none" xmlns="http://www.w3.org/2000/svg">
<path d="M12.75 9.25L10.9498 7.44983C10.7311 7.23112 10.4344 7.10825 10.125 7.10825C9.81564 7.10825 9.51895 7.23112 9.30017 7.44983L4 12.75M3.41667 2.25H11.5833C12.2277 2.25 12.75 2.77233 12.75 3.41667V11.5833C12.75 12.2277 12.2277 12.75 11.5833 12.75H3.41667C2.77233 12.75 2.25 12.2277 2.25 11.5833V3.41667C2.25 2.77233 2.77233 2.25 3.41667 2.25ZM6.91667 5.75C6.91667 6.39433 6.39433 6.91667 5.75 6.91667C5.10567 6.91667 4.58333 6.39433 4.58333 5.75C4.58333 5.10567 5.10567 4.58333 5.75 4.58333C6.39433 4.58333 6.91667 5.10567 6.91667 5.75Z" stroke="#475569" stroke-width="1.2" stroke-linecap="round" stroke-linejoin="round"/>
</svg>
