<svg width="14" height="15" viewBox="0 0 14 15" fill="none" xmlns="http://www.w3.org/2000/svg">
<path d="M12.25 9.25L10.4498 7.44983C10.2311 7.23112 9.93436 7.10825 9.625 7.10825C9.31564 7.10825 9.01895 7.23112 8.80017 7.44983L3.5 12.75M2.91667 2.25H11.0833C11.7277 2.25 12.25 2.77233 12.25 3.41667V11.5833C12.25 12.2277 11.7277 12.75 11.0833 12.75H2.91667C2.27233 12.75 1.75 12.2277 1.75 11.5833V3.41667C1.75 2.77233 2.27233 2.25 2.91667 2.25ZM6.41667 5.75C6.41667 6.39433 5.89433 6.91667 5.25 6.91667C4.60567 6.91667 4.08333 6.39433 4.08333 5.75C4.08333 5.10567 4.60567 4.58333 5.25 4.58333C5.89433 4.58333 6.41667 5.10567 6.41667 5.75Z" stroke="#475569" stroke-width="1.2" stroke-linecap="round" stroke-linejoin="round"/>
</svg>
